<svg width="40" height="40" viewBox="0 0 40 40" fill="none" xmlns="http://www.w3.org/2000/svg">
<path d="M33.535 11.8683C32.5917 10.9233 31.335 10.4033 30 10.4033C28.665 10.4033 27.4083 10.9233 26.465 11.8683C26.0767 12.2567 25.555 12.4717 25 12.4717C24.445 12.4717 23.9233 12.2567 23.535 11.8683C21.2583 9.59165 18.2267 8.33832 15 8.33832C11.7733 8.33832 8.74167 9.59165 6.465 11.8683C5.52 12.8133 5 14.0683 5 15.4033C5 16.7383 5.52 17.995 6.465 18.9383C7.40833 19.8833 8.665 20.4033 10 20.4033V28.3333C10 31.09 12.2433 33.3333 15 33.3333C17.7567 33.3333 20 31.09 20 28.3333C20 31.09 22.2433 33.3333 25 33.3333C27.7567 33.3333 30 31.09 30 28.3333V21.39C31.3155 20.7924 32.5124 19.9624 33.5333 18.94C34.48 17.995 35 16.7383 35 15.4033C35 14.0683 34.48 12.8133 33.535 11.8683V11.8683ZM31.1783 16.5817C29.9478 17.8133 28.3762 18.6475 26.6667 18.9766V28.3333C26.6667 28.7753 26.4911 29.1993 26.1785 29.5118C25.8659 29.8244 25.442 30 25 30C24.558 30 24.134 29.8244 23.8215 29.5118C23.5089 29.1993 23.3333 28.7753 23.3333 28.3333V18.9766C21.6235 18.6482 20.0517 17.8138 18.8217 16.5817C18.2168 15.9851 17.4779 15.5422 16.6667 15.29V28.3333C16.6667 28.7753 16.4911 29.1993 16.1785 29.5118C15.866 29.8244 15.442 30 15 30C14.558 30 14.134 29.8244 13.8215 29.5118C13.5089 29.1993 13.3333 28.7753 13.3333 28.3333V15.2883C12.5219 15.5408 11.7828 15.9843 11.1783 16.5817C11.0239 16.737 10.8403 16.8602 10.6381 16.9443C10.4359 17.0284 10.219 17.0717 10 17.0717C9.78099 17.0717 9.56413 17.0284 9.36191 16.9443C9.15969 16.8602 8.97609 16.737 8.82167 16.5817C8.66676 16.427 8.54386 16.2433 8.46001 16.0411C8.37616 15.8389 8.333 15.6222 8.333 15.4033C8.333 15.1844 8.37616 14.9677 8.46001 14.7655C8.54386 14.5633 8.66676 14.3796 8.82167 14.225C10.5233 12.5233 12.7617 11.6717 15 11.6717C17.2383 11.6717 19.475 12.5233 21.1783 14.225C21.68 14.7269 22.2759 15.1248 22.9317 15.3959C23.5875 15.6671 24.2904 15.8061 25 15.805C26.385 15.805 27.7683 15.2783 28.8217 14.225C28.9761 14.0697 29.1597 13.9464 29.3619 13.8623C29.5641 13.7782 29.781 13.7349 30 13.7349C30.219 13.7349 30.4359 13.7782 30.6381 13.8623C30.8403 13.9464 31.0239 14.0697 31.1783 14.225C31.3332 14.3796 31.4561 14.5633 31.54 14.7655C31.6238 14.9677 31.667 15.1844 31.667 15.4033C31.667 15.6222 31.6238 15.8389 31.54 16.0411C31.4561 16.2433 31.3332 16.427 31.1783 16.5817Z" fill="white"/>
</svg>
