<svg width="120" height="107" viewBox="0 0 120 107" fill="none" xmlns="http://www.w3.org/2000/svg">
<g clip-path="url(#clip0)">
<path d="M119.023 52.3562L114.31 47.6437C113.008 46.3417 110.898 46.3417 109.596 47.6437L100 57.2396L90.4042 47.6437C89.1021 46.3417 86.9917 46.3417 85.6896 47.6437L80.9771 52.3562C79.675 53.6583 79.675 55.7687 80.9771 57.0708L90.5729 66.6667L80.9771 76.2625C79.675 77.5646 79.675 79.675 80.9771 80.9771L85.6896 85.6896C86.9917 86.9917 89.1021 86.9917 90.4042 85.6896L100 76.0937L109.596 85.6896C110.898 86.9917 113.008 86.9917 114.31 85.6896L119.023 80.9771C120.325 79.675 120.325 77.5646 119.023 76.2625L109.427 66.6667L119.023 57.0708C120.325 55.7687 120.325 53.6583 119.023 52.3562ZM115 0H64.0937C61.0646 0 58.4146 2.04167 57.6458 4.97292L39.9812 72.2229L27.8125 50.1188C27.237 49.0735 26.3916 48.2019 25.3645 47.5947C24.3373 46.9875 23.1661 46.667 21.9729 46.6667H5C2.23958 46.6667 0 48.9042 0 51.6667V61.6667C0 64.4271 2.23958 66.6667 5 66.6667H14.0875L32.6042 100.777C35.2062 104.896 38.8125 106.667 42.6958 106.667C46.2937 106.667 51.9542 104.792 54.0042 98.025L74.3812 20H115C117.76 20 120 17.7604 120 15V5C120 2.2375 117.76 0 115 0Z" fill="white"/>
</g>
<defs>
<clipPath id="clip0">
<rect width="120" height="106.667" fill="white"/>
</clipPath>
</defs>
</svg>
